<svg id="Layer_1" enable-background="new 0 0 512 512" height="512" viewBox="0 0 512 512" width="512" xmlns="http://www.w3.org/2000/svg"><g id="Layer_2_00000050649413490674595010000017670553953242930856_"><g id="link"><path d="m64.6 319.3c-17.5-17.5-26.2-38.7-26.2-63.4 0-23.7 9.5-46.4 26.2-63.2 17.5-17.5 38.6-26.2 63.4-26.2h89.6c10.6 0 19.2-8.6 19.2-19.2 0-10.6-8.6-19.2-19.2-19.2h-89.6c-35.4 0-65.6 12.5-90.6 37.4s-37.4 55.1-37.4 90.5 12.5 65.6 37.4 90.6 55.2 37.4 90.6 37.4h89.6c10.6 0 19.2-8.6 19.2-19.2 0-10.6-8.6-19.2-19.2-19.2h-88.8c-24.1.1-47.2-9.4-64.2-26.3z"/><path d="m176 236.8h160c10.6 0 19.2 8.6 19.2 19.2 0 10.6-8.6 19.2-19.2 19.2h-160c-10.6 0-19.2-8.6-19.2-19.2 0-10.6 8.6-19.2 19.2-19.2z"/><path d="m474.6 165.4c-25-25-55.1-37.4-90.6-37.4h-89.6c-10.6 0-19.2 8.6-19.2 19.2 0 10.6 8.6 19.2 19.2 19.2h88.8c24-.1 47.1 9.4 64.2 26.3 17.5 17.5 26.2 38.7 26.2 63.4 0 23.7-9.5 46.4-26.2 63.2-17.5 17.5-38.6 26.2-63.4 26.2h-89.6c-10.6 0-19.2 8.6-19.2 19.2 0 10.6 8.6 19.2 19.2 19.2h89.6c35.4 0 65.6-12.5 90.6-37.4 25-25 37.4-55.1 37.4-90.6 0-35.3-12.5-65.5-37.4-90.5z"/></g></g></svg>